<svg version="1.1" xmlns="http://www.w3.org/2000/svg" xmlns:xlink="http://www.w3.org/1999/xlink" width="58.56342" height="71.03174" viewBox="0,0,58.56342,71.03174"><defs><linearGradient x1="237.90203" y1="170.83434" x2="239.33159" y2="223.28647" gradientUnits="userSpaceOnUse" id="color-1"><stop offset="0" stop-color="#00b500"/><stop offset="1" stop-color="#008800"/></linearGradient><linearGradient x1="108.99188" y1="184.20136" x2="110.47082" y2="226.52473" gradientUnits="userSpaceOnUse" id="color-2"><stop offset="0" stop-color="#00b500"/><stop offset="1" stop-color="#008800"/></linearGradient><linearGradient x1="227.51156" y1="185.59566" x2="227.80263" y2="230.35693" gradientUnits="userSpaceOnUse" id="color-3"><stop offset="0" stop-color="#00b500"/><stop offset="1" stop-color="#008800"/></linearGradient></defs><g transform="translate(-210.71829,-144.48413)"><g data-paper-data="{&quot;isPaintingLayer&quot;:true}" stroke="none" stroke-linecap="butt" stroke-linejoin="miter" stroke-miterlimit="10" stroke-dasharray="" stroke-dashoffset="0" style="mix-blend-mode: normal"><g fill="#ffffff" fill-rule="nonzero" stroke-width="0.225"><path d="M269.28171,198.51359c0,4.65988 -1.66875,8.65858 -5.00623,11.99605c-3.33748,3.33748 -7.33618,5.00623 -11.99605,5.00623c-4.78583,0 -8.87897,-1.79469 -12.27943,-5.38406c-3.40046,3.58937 -7.49359,5.38406 -12.27943,5.38406c-4.65988,0 -8.65858,-1.66875 -11.99605,-5.00623c-3.33748,-3.33748 -5.00623,-7.36766 -5.00623,-12.09051v-36.93272c0,-4.72286 1.66875,-8.72153 5.00623,-11.99605c3.33748,-3.33748 7.33618,-5.00623 11.99605,-5.00623c3.84126,0 7.24172,1.19646 10.20137,3.58937c2.95965,2.32995 4.94325,5.35258 5.9508,9.06788c7.24172,1.00755 13.28697,4.25057 18.13577,9.72908c4.84879,5.47851 7.2732,11.8701 7.2732,19.17478zM258.41914,198.51359v-12.46834c0,-5.03771 -1.79469,-9.35124 -5.38406,-12.94061c-3.58937,-3.65235 -7.9344,-5.47851 -13.03508,-5.47851c-2.07806,0 -4.09314,0.34635 -6.04526,1.03903v-7.17874c0,-1.70023 -0.62972,-3.14856 -1.88914,-4.34503c-1.19646,-1.25942 -2.6448,-1.88914 -4.34503,-1.88914c-1.70023,0 -3.14856,0.62972 -4.34503,1.88914c-1.19646,1.19646 -1.79469,2.6448 -1.79469,4.34503v36.93272c0,1.76321 0.59822,3.24302 1.79469,4.43948c1.19646,1.19646 2.6448,1.79469 4.34503,1.79469c1.70023,0 3.14856,-0.59822 4.34503,-1.79469c1.25942,-1.19646 1.88914,-2.67628 1.88914,-4.43948v-12.37388c0,-1.63725 0.59822,-3.05411 1.79469,-4.25055c1.19646,-1.19646 2.61332,-1.79469 4.25057,-1.79469c1.70023,0 3.11709,0.59822 4.25057,1.79469c1.19646,1.19644 1.79469,2.6133 1.79469,4.25055v12.46834c0,1.70023 0.59822,3.14856 1.79469,4.34503c1.25942,1.19646 2.73926,1.79469 4.43948,1.79469c1.70023,0 3.14856,-0.59822 4.34503,-1.79469c1.19646,-1.19646 1.79469,-2.6448 1.79469,-4.34503z"/><path/><path/><path/><path/><path/><path/><path/><path/></g><path d="M231.6616,156.41436c3.73063,2.64973 2.47323,7.86724 2.73955,11.75063c3.76633,-1.18999 7.92291,-1.28865 11.64219,0.1307c5.57734,2.26636 10.74705,6.96655 12.04323,13.03241c0.96884,6.37017 0.6686,12.89589 0.23542,19.29871c-1.28579,4.81757 -8.6361,5.81062 -11.32586,1.65384c-2.36098,-3.68398 -1.02244,-8.36503 -1.41349,-12.47024c-0.00056,-2.84284 0.42617,-6.39889 -2.25286,-8.19639c-2.71724,-2.39094 -7.09752,-0.9214 -8.49493,2.19373c-0.99083,5.3054 -0.01631,10.83293 -0.77903,16.19746c-1.01612,3.79905 -5.87019,6.54668 -9.40838,4.13125c-3.20524,-1.14784 -3.23782,-4.89682 -3.2811,-7.72802c-0.09699,-11.89591 -0.3645,-23.81331 0.16874,-35.69944c-0.1915,-3.2814 2.93349,-5.61681 5.96926,-5.71157c1.50092,-0.0466 2.97382,0.51232 4.15725,1.41693z" fill="url(#color-1)" fill-rule="evenodd" stroke-width="0.12707"/><path fill="url(#color-2)" fill-rule="evenodd" stroke-width="0.12707"/><path fill="url(#color-3)" fill-rule="evenodd" stroke-width="0.12707"/></g></g></svg>