<svg version="1.1" xmlns="http://www.w3.org/2000/svg" xmlns:xlink="http://www.w3.org/1999/xlink" width="417.24757" height="71.12619" viewBox="0,0,417.24757,71.12619"><defs><linearGradient x1="58.55995" y1="170.88157" x2="59.98951" y2="223.3337" gradientUnits="userSpaceOnUse" id="color-1"><stop offset="0" stop-color="#00b500"/><stop offset="1" stop-color="#008800"/></linearGradient><linearGradient x1="108.99188" y1="184.20136" x2="110.47082" y2="226.52472" gradientUnits="userSpaceOnUse" id="color-2"><stop offset="0" stop-color="#00b500"/><stop offset="1" stop-color="#008800"/></linearGradient><linearGradient x1="146.76699" y1="186.85261" x2="146.94136" y2="227.39259" gradientUnits="userSpaceOnUse" id="color-3"><stop offset="0" stop-color="#00b500"/><stop offset="1" stop-color="#008800"/></linearGradient><linearGradient x1="139.97141" y1="188.51445" x2="153.15058" y2="188.51445" gradientUnits="userSpaceOnUse" id="color-4"><stop offset="0" stop-color="#00b500"/><stop offset="1" stop-color="#008800"/></linearGradient><linearGradient x1="145.67668" y1="161.92357" x2="145.57657" y2="216.63234" gradientUnits="userSpaceOnUse" id="color-5"><stop offset="0" stop-color="#00b500"/><stop offset="1" stop-color="#008800"/></linearGradient><linearGradient x1="180.39752" y1="185.91617" x2="180.44542" y2="228.34305" gradientUnits="userSpaceOnUse" id="color-6"><stop offset="0" stop-color="#00b500"/><stop offset="1" stop-color="#008800"/></linearGradient><linearGradient x1="227.51156" y1="185.59565" x2="227.80263" y2="230.35692" gradientUnits="userSpaceOnUse" id="color-7"><stop offset="0" stop-color="#00b500"/><stop offset="1" stop-color="#008800"/></linearGradient><linearGradient x1="321.88626" y1="187.43365" x2="322.0383" y2="227.61242" gradientUnits="userSpaceOnUse" id="color-8"><stop offset="0" stop-color="#00b500"/><stop offset="1" stop-color="#008800"/></linearGradient><linearGradient x1="370.52373" y1="186.03325" x2="368.68483" y2="241.77194" gradientUnits="userSpaceOnUse" id="color-9"><stop offset="0" stop-color="#00b500"/><stop offset="1" stop-color="#008800"/></linearGradient><linearGradient x1="368.22714" y1="188.1392" x2="367.97607" y2="231.224" gradientUnits="userSpaceOnUse" id="color-10"><stop offset="0" stop-color="#00b500"/><stop offset="1" stop-color="#008800"/></linearGradient><linearGradient x1="419.11402" y1="179.66712" x2="420.45463" y2="223.97545" gradientUnits="userSpaceOnUse" id="color-11"><stop offset="0" stop-color="#00b500"/><stop offset="1" stop-color="#008800"/></linearGradient><linearGradient x1="273.12042" y1="184.50928" x2="275.18528" y2="226.77877" gradientUnits="userSpaceOnUse" id="color-12"><stop offset="0" stop-color="#00b500"/><stop offset="1" stop-color="#008800"/></linearGradient></defs><g transform="translate(-31.37622,-144.4369)"><g data-paper-data="{&quot;isPaintingLayer&quot;:true}" stroke-linecap="butt" stroke-linejoin="miter" stroke-miterlimit="10" stroke-dasharray="" stroke-dashoffset="0" style="mix-blend-mode: normal"><g fill="#ffffff" fill-rule="nonzero" stroke="none" stroke-width="0.225"><path d="M89.93963,198.56082c0,4.65988 -1.66875,8.65858 -5.00623,11.99605c-3.33748,3.33748 -7.33618,5.00623 -11.99605,5.00623c-4.78583,0 -8.87897,-1.79469 -12.27943,-5.38406c-3.40046,3.58937 -7.49359,5.38406 -12.27943,5.38406c-4.65988,0 -8.65858,-1.66875 -11.99605,-5.00623c-3.33748,-3.33748 -5.00623,-7.36766 -5.00623,-12.09051v-36.93272c0,-4.72286 1.66875,-8.72153 5.00623,-11.99605c3.33748,-3.33748 7.33618,-5.00623 11.99605,-5.00623c3.84126,0 7.24172,1.19646 10.20137,3.58937c2.95965,2.32995 4.94325,5.35258 5.9508,9.06788c7.24172,1.00755 13.28697,4.25057 18.13577,9.72908c4.84879,5.47851 7.2732,11.8701 7.2732,19.17478zM79.07706,198.56082v-12.46834c0,-5.03771 -1.79469,-9.35124 -5.38406,-12.94061c-3.58937,-3.65235 -7.9344,-5.47851 -13.03508,-5.47851c-2.07806,0 -4.09314,0.34635 -6.04526,1.03903v-7.17874c0,-1.70023 -0.62972,-3.14856 -1.88914,-4.34503c-1.19646,-1.25942 -2.6448,-1.88914 -4.34503,-1.88914c-1.70023,0 -3.14856,0.62972 -4.34503,1.88914c-1.19646,1.19646 -1.79469,2.6448 -1.79469,4.34503v36.93272c0,1.76321 0.59822,3.24302 1.79469,4.43948c1.19646,1.19646 2.6448,1.79469 4.34503,1.79469c1.70023,0 3.14856,-0.59822 4.34503,-1.79469c1.25942,-1.19646 1.88914,-2.67628 1.88914,-4.43948v-12.37388c0,-1.63725 0.59822,-3.05411 1.79469,-4.25055c1.19646,-1.19646 2.61332,-1.79469 4.25057,-1.79469c1.70023,0 3.11709,0.59822 4.25057,1.79469c1.19646,1.19644 1.79469,2.6133 1.79469,4.25055v12.46834c0,1.70023 0.59822,3.14856 1.79469,4.34503c1.25942,1.19646 2.73926,1.79469 4.43948,1.79469c1.70023,0 3.14856,-0.59822 4.34503,-1.79469c1.19646,-1.19646 1.79469,-2.6448 1.79469,-4.34503z"/><path d="M138.88404,198.46636c0,4.72286 -1.66875,8.75303 -5.00623,12.09051c-3.33748,3.33748 -7.33618,5.00623 -11.99605,5.00623h-12.27943c-8.06033,0 -14.9557,-2.89669 -20.68611,-8.69006c-5.7304,-5.7304 -8.5956,-12.62577 -8.5956,-20.68611c0,-8.06033 2.86519,-14.95569 8.5956,-20.68609c5.7304,-5.7304 12.62577,-8.5956 20.68611,-8.5956c8.06033,0 14.9557,2.86519 20.68611,8.5956c5.7304,5.7304 8.5956,12.62576 8.5956,20.68609zM128.02147,198.46636v-12.27943c0,-5.03771 -1.79469,-9.35124 -5.38406,-12.94061c-3.58937,-3.65235 -7.9344,-5.47851 -13.03508,-5.47851c-5.03771,0 -9.38273,1.82616 -13.03508,5.47851c-3.58937,3.58937 -5.38406,7.9029 -5.38406,12.94061c0,5.10068 1.79469,9.47719 5.38406,13.12954c3.58937,3.58937 7.9344,5.38406 13.03508,5.38406h12.27943c1.70023,0 3.14856,-0.59822 4.34503,-1.79469c1.19646,-1.19646 1.79469,-2.67628 1.79469,-4.43948zM115.64759,192.32665h-6.04526c-1.63725,0 -3.05411,-0.59822 -4.25057,-1.79469c-1.19646,-1.19646 -1.79469,-2.6448 -1.79469,-4.34503c0,-1.63725 0.59822,-3.05411 1.79469,-4.25055c1.19646,-1.19646 2.61332,-1.79469 4.25057,-1.79469c1.63725,0 3.05411,0.59822 4.25057,1.79469c1.19646,1.19644 1.79469,2.6133 1.79469,4.25055z"/><path d="M163.64741,198.56082c0,4.65988 -1.70023,8.65858 -5.10068,11.99605c-3.33748,3.33748 -7.33618,5.00623 -11.99605,5.00623c-4.65988,0 -8.65858,-1.66875 -11.99605,-5.00623c-3.33748,-3.33748 -5.00623,-7.33618 -5.00623,-11.99605v-20.11935c0,-2.83371 0.75566,-5.66743 2.26697,-8.50114c-1.51131,-2.58182 -2.26697,-5.38406 -2.26697,-8.40668c0,-4.72286 1.66875,-8.75303 5.00623,-12.09051c3.33748,-3.33748 7.33618,-5.00623 11.99605,-5.00623c4.65988,0 8.65858,1.66875 11.99605,5.00623c3.33748,3.33748 5.00623,7.36766 5.00623,12.09051c0,3.02263 -0.75566,5.82486 -2.26697,8.40668c1.57429,2.6448 2.36143,5.47851 2.36143,8.50114zM152.69038,161.53364c0,-1.70023 -0.59822,-3.14856 -1.79469,-4.34503c-1.19646,-1.25942 -2.6448,-1.88914 -4.34503,-1.88914c-1.70023,0 -3.14856,0.62972 -4.34503,1.88914c-1.19646,1.19646 -1.79469,2.6448 -1.79469,4.34503c0,1.70023 0.59822,3.14856 1.79469,4.34503c1.19646,1.19646 2.6448,1.79469 4.34503,1.79469c1.70023,0 3.14856,-0.59822 4.34503,-1.79469c1.19646,-1.19646 1.79469,-2.6448 1.79469,-4.34503zM152.78484,198.56082v-20.11935c0,-1.70023 -0.62972,-3.14856 -1.88914,-4.34503c-1.19646,-1.19646 -2.6448,-1.79469 -4.34503,-1.79469c-1.70023,0 -3.14856,0.59822 -4.34503,1.79469c-1.19646,1.19646 -1.79469,2.6448 -1.79469,4.34503v20.11935c0,1.70023 0.59822,3.14856 1.79469,4.34503c1.19646,1.19646 2.6448,1.79469 4.34503,1.79469c1.70023,0 3.14856,-0.59822 4.34503,-1.79469c1.25942,-1.19646 1.88914,-2.6448 1.88914,-4.34503z"/><path d="M209.00243,173.90752c0,4.72286 -1.66875,8.75301 -5.00623,12.09049c-3.33748,3.27452 -7.36766,4.91177 -12.09051,4.91177h-4.34503v7.55657c0,4.72286 -1.66875,8.75303 -5.00623,12.09051c-3.27452,3.33748 -7.2732,5.00623 -11.99605,5.00623c-4.65988,0 -8.65858,-1.66875 -11.99605,-5.00623c-3.33748,-3.33748 -5.00623,-7.36766 -5.00623,-12.09051v-12.27943c0,-8.06033 2.86519,-14.95569 8.5956,-20.68609c5.7304,-5.7304 12.62577,-8.5956 20.68611,-8.5956h9.06788c4.72286,0 8.75303,1.66875 12.09051,5.00623c3.33748,3.33748 5.00623,7.33618 5.00623,11.99605zM198.13986,173.90752c0,-1.70023 -0.62972,-3.14856 -1.88914,-4.34503c-1.19646,-1.19646 -2.6448,-1.79469 -4.34503,-1.79469h-9.06788c-5.10068,0 -9.44571,1.79469 -13.03508,5.38406c-3.58937,3.58937 -5.38406,7.9344 -5.38406,13.03506v12.27943c0,1.76321 0.59822,3.24302 1.79469,4.43948c1.19646,1.19646 2.6448,1.79469 4.34503,1.79469c1.70023,0 3.14856,-0.59822 4.34503,-1.79469c1.25942,-1.19646 1.88914,-2.67628 1.88914,-4.43948v-12.27943c0,-1.63725 0.59822,-3.05411 1.79469,-4.25055c1.19646,-1.19646 2.61332,-1.79469 4.25057,-1.79469h9.06788c1.76321,0 3.24302,-0.59822 4.43948,-1.79469c1.19646,-1.25942 1.79469,-2.73926 1.79469,-4.43948z"/><path d="M257.19118,186.18693c0,8.06033 -2.86519,14.9557 -8.5956,20.68611c-5.7304,5.79336 -12.62577,8.69006 -20.68613,8.69006c-8.06033,0 -14.9557,-2.89669 -20.68611,-8.69006c-5.7304,-5.7304 -8.5956,-12.62577 -8.5956,-20.68611v-24.65329c0,-4.72286 1.66875,-8.72153 5.00623,-11.99605c3.33748,-3.33748 7.33618,-5.00623 11.99605,-5.00623c3.90422,0 7.33618,1.19646 10.29583,3.58937c2.95967,2.39291 4.94327,5.47851 5.95082,9.2568c7.24172,0.94457 13.25548,4.15611 18.04131,9.63463c4.84879,5.47851 7.2732,11.8701 7.2732,19.17478zM246.42307,186.18693c0,-5.03771 -1.82616,-9.35124 -5.47851,-12.94061c-3.58937,-3.65235 -7.9344,-5.47851 -13.0351,-5.47851h-6.04526v-6.23417c0,-1.70023 -0.62972,-3.14856 -1.88914,-4.34503c-1.19646,-1.25942 -2.6448,-1.88914 -4.34503,-1.88914c-1.70023,0 -3.14856,0.62972 -4.34503,1.88914c-1.19646,1.19646 -1.79469,2.6448 -1.79469,4.34503v24.65329c0,5.10068 1.79469,9.47719 5.38406,13.12954c3.58937,3.58937 7.9344,5.38406 13.03508,5.38406c5.1007,0 9.44573,-1.79469 13.0351,-5.38406c3.65235,-3.65235 5.47851,-8.02886 5.47851,-13.12954zM233.95473,186.18693c0,1.70023 -0.59822,3.14856 -1.79469,4.34503c-1.13349,1.19646 -2.55034,1.79469 -4.25059,1.79469c-1.63725,0 -3.05411,-0.59822 -4.25057,-1.79469c-1.19646,-1.19646 -1.79469,-2.6448 -1.79469,-4.34503v-6.04524h6.04526c1.63727,0 3.05413,0.59822 4.25059,1.79469c1.19646,1.19644 1.79469,2.6133 1.79469,4.25055z"/><path d="M302.26284,173.90752c0,4.72286 -1.66875,8.75301 -5.00623,12.09049c-3.33748,3.27452 -7.36766,4.91177 -12.09051,4.91177h-4.34503v7.55657c0,4.72286 -1.66875,8.75303 -5.00623,12.09051c-3.27452,3.33748 -7.2732,5.00623 -11.99605,5.00623c-4.65988,0 -8.65858,-1.66875 -11.99605,-5.00623c-3.33748,-3.33748 -5.00623,-7.36766 -5.00623,-12.09051v-12.27943c0,-8.06033 2.86519,-14.95569 8.5956,-20.68609c5.7304,-5.7304 12.62577,-8.5956 20.68611,-8.5956h9.06788c4.72286,0 8.75303,1.66875 12.09051,5.00623c3.33748,3.33748 5.00623,7.33618 5.00623,11.99605zM291.40028,173.90752c0,-1.70023 -0.62972,-3.14856 -1.88914,-4.34503c-1.19646,-1.19646 -2.6448,-1.79469 -4.34503,-1.79469h-9.06788c-5.10068,0 -9.44571,1.79469 -13.03508,5.38406c-3.58937,3.58937 -5.38406,7.9344 -5.38406,13.03506v12.27943c0,1.76321 0.59822,3.24302 1.79469,4.43948c1.19646,1.19646 2.6448,1.79469 4.34503,1.79469c1.70023,0 3.14856,-0.59822 4.34503,-1.79469c1.25942,-1.19646 1.88914,-2.67628 1.88914,-4.43948v-12.27943c0,-1.63725 0.59822,-3.05411 1.79469,-4.25055c1.19646,-1.19646 2.61332,-1.79469 4.25057,-1.79469h9.06788c1.76321,0 3.24302,-0.59822 4.43948,-1.79469c1.19646,-1.25942 1.79469,-2.73926 1.79469,-4.43948z"/><path d="M350.64051,186.28139c0,8.06033 -2.86519,14.9557 -8.5956,20.68611c-5.7304,5.7304 -12.62577,8.5956 -20.68611,8.5956c-8.12331,0 -15.05016,-2.86519 -20.78057,-8.5956c-5.66743,-5.7304 -8.50114,-12.62577 -8.50114,-20.68611v-12.37386c0,-4.65988 1.63725,-8.65858 4.91177,-11.99605c3.33748,-3.33748 7.36766,-5.00623 12.09051,-5.00623c4.78583,0 8.87897,1.79469 12.27943,5.38406c3.40046,-3.52639 7.49359,-5.2896 12.27943,-5.2896c4.65988,0 8.65858,1.66875 11.99605,5.00623c3.33748,3.27452 5.00623,7.2732 5.00623,11.99605zM339.77794,186.28139v-12.27941c0,-1.70023 -0.62972,-3.14856 -1.88914,-4.34503c-1.19646,-1.25942 -2.61332,-1.88914 -4.25057,-1.88914c-1.70023,0 -3.18006,0.62972 -4.43948,1.88914c-1.19646,1.19646 -1.79469,2.6448 -1.79469,4.34503v12.27941c0,1.63725 -0.59822,3.05411 -1.79469,4.25057c-1.19646,1.19646 -2.61332,1.79469 -4.25057,1.79469c-1.70023,0 -3.14856,-0.59822 -4.34503,-1.79469c-1.13349,-1.19646 -1.70023,-2.61332 -1.70023,-4.25057v-12.37386c0,-1.70023 -0.62972,-3.14856 -1.88914,-4.34503c-1.19646,-1.19646 -2.6448,-1.79469 -4.34503,-1.79469c-1.70023,0 -3.14856,0.59822 -4.34503,1.79469c-1.19646,1.19646 -1.79469,2.6448 -1.79469,4.34503v12.37386c0,5.03771 1.79469,9.38273 5.38406,13.03508c3.58937,3.58937 7.9344,5.38406 13.03508,5.38406c5.03771,0 9.35126,-1.79469 12.94063,-5.38406c3.65235,-3.65235 5.47851,-7.99738 5.47851,-13.03508z"/><path d="M399.39604,174.00198c0,2.70778 -0.69268,5.35258 -2.07806,7.9344c1.70023,2.8337 2.55034,5.76187 2.55034,8.78449c0,1.88914 -0.34635,3.68383 -1.03903,5.38406h-0.09446c-2.32995,5.7304 -5.91932,10.3588 -10.76811,13.8852c-5.03771,3.58937 -10.54772,5.38406 -16.53,5.38406h-13.224c-4.65988,0 -8.65858,-1.63725 -11.99605,-4.91177c-3.27452,-3.27452 -4.91177,-7.24172 -4.91177,-11.9016c0,-2.83371 0.69268,-5.47851 2.07806,-7.9344c-1.63725,-2.70778 -2.45589,-5.57297 -2.45589,-8.59558c0,-1.88914 0.34635,-3.74681 1.03903,-5.57297v-0.09446c2.01508,-5.7304 5.54149,-10.3588 10.5792,-13.8852c5.03771,-3.52639 10.64218,-5.2896 16.81337,-5.2896h13.224c4.59692,0 8.53262,1.63725 11.80714,4.91177c3.33748,3.27452 5.00623,7.24172 5.00623,11.9016zM388.72239,173.71861c0,-1.76321 -0.59822,-3.24302 -1.79469,-4.43948c-1.19646,-1.19646 -2.6448,-1.79469 -4.34503,-1.79469h-13.224c-3.90422,0 -7.46211,1.13349 -10.67365,3.40046c-3.14856,2.20399 -5.38406,5.13216 -6.70646,8.78451c-0.25189,0.69268 -0.37783,1.38538 -0.37783,2.07806c0,1.76319 0.59822,3.243 1.79469,4.43947c1.19646,1.19646 2.6448,1.79469 4.34503,1.79469c2.95965,0 4.91177,-1.35388 5.85634,-4.06166c0.94457,-2.70776 2.86519,-4.06164 5.76188,-4.06164h13.224c1.70023,0 3.14856,-0.59822 4.34503,-1.79469c1.19646,-1.19646 1.79469,-2.6448 1.79469,-4.34503zM388.72239,192.51556c0.25189,-0.69268 0.37783,-1.41686 0.37783,-2.17251c0,-1.70023 -0.59822,-3.14856 -1.79469,-4.34503c-1.19646,-1.19646 -2.6448,-1.79469 -4.34503,-1.79469c-2.95965,0 -4.91177,1.35388 -5.85634,4.06166c-0.94457,2.70778 -2.83371,4.06166 -5.66743,4.06166h-13.224c-1.76321,0 -3.24302,0.59822 -4.43948,1.79469c-1.19646,1.19646 -1.79469,2.67628 -1.79469,4.43948c0,1.70023 0.59822,3.14856 1.79469,4.34503c1.19646,1.19646 2.67628,1.79469 4.43948,1.79469h13.224c3.84126,0 7.33618,-1.10201 10.48474,-3.306c3.21154,-2.26697 5.47851,-5.22662 6.80091,-8.87897z"/><path d="M448.62378,198.56082c0,4.65988 -1.66875,8.65858 -5.00623,11.99605c-3.33748,3.33748 -7.33618,5.00623 -11.99605,5.00623c-4.78583,0 -8.87897,-1.79469 -12.27943,-5.38406c-3.40046,3.58937 -7.49359,5.38406 -12.27943,5.38406c-4.65988,0 -8.65858,-1.66875 -11.99605,-5.00623c-3.33748,-3.33748 -5.00623,-7.36766 -5.00623,-12.09051v-36.93272c0,-4.72286 1.66875,-8.72153 5.00623,-11.99605c3.33748,-3.33748 7.33618,-5.00623 11.99605,-5.00623c3.84126,0 7.24172,1.19646 10.20137,3.58937c2.95965,2.32995 4.94325,5.35258 5.9508,9.06788c7.24172,1.00755 13.28697,4.25057 18.13577,9.72908c4.84879,5.47851 7.2732,11.8701 7.2732,19.17478zM437.76122,198.56082v-12.46834c0,-5.03771 -1.79469,-9.35124 -5.38406,-12.94061c-3.58937,-3.65235 -7.9344,-5.47851 -13.03508,-5.47851c-2.07806,0 -4.09314,0.34635 -6.04526,1.03903v-7.17874c0,-1.70023 -0.62972,-3.14856 -1.88914,-4.34503c-1.19646,-1.25942 -2.6448,-1.88914 -4.34503,-1.88914c-1.70023,0 -3.14856,0.62972 -4.34503,1.88914c-1.19646,1.19646 -1.79469,2.6448 -1.79469,4.34503v36.93272c0,1.76321 0.59822,3.24302 1.79469,4.43948c1.19646,1.19646 2.6448,1.79469 4.34503,1.79469c1.70023,0 3.14856,-0.59822 4.34503,-1.79469c1.25942,-1.19646 1.88914,-2.67628 1.88914,-4.43948v-12.37388c0,-1.63725 0.59822,-3.05411 1.79469,-4.25055c1.19646,-1.19646 2.61332,-1.79469 4.25057,-1.79469c1.70023,0 3.11709,0.59822 4.25057,1.79469c1.19646,1.19644 1.79469,2.6133 1.79469,4.25055v12.46834c0,1.70023 0.59822,3.14856 1.79469,4.34503c1.25942,1.19646 2.73926,1.79469 4.43948,1.79469c1.70023,0 3.14856,-0.59822 4.34503,-1.79469c1.19646,-1.19646 1.79469,-2.6448 1.79469,-4.34503z"/></g><path d="M52.31952,156.46159c3.73063,2.64973 2.47323,7.86724 2.73955,11.75063c3.76633,-1.18999 7.92291,-1.28865 11.64219,0.1307c5.57734,2.26636 10.74705,6.96655 12.04323,13.03241c0.96884,6.37017 0.6686,12.89589 0.23542,19.29871c-1.28579,4.81757 -8.6361,5.81062 -11.32586,1.65384c-2.36098,-3.68398 -1.02244,-8.36503 -1.41349,-12.47024c-0.00056,-2.84284 0.42617,-6.39889 -2.25286,-8.19639c-2.71724,-2.39094 -7.09752,-0.9214 -8.49493,2.19373c-0.99083,5.3054 -0.01631,10.83293 -0.77903,16.19746c-1.01612,3.79905 -5.87019,6.54668 -9.40838,4.13125c-3.20524,-1.14784 -3.23782,-4.89682 -3.2811,-7.72802c-0.09699,-11.89591 -0.3645,-23.81331 0.16874,-35.69944c-0.1915,-3.2814 2.93349,-5.61681 5.96926,-5.71157c1.50092,-0.0466 2.97382,0.51232 4.15725,1.41693z" fill="url(#color-1)" fill-rule="evenodd" stroke="none" stroke-width="0.12707"/><path d="M124.97317,175.51895c4.10613,5.34633 3.36383,12.38617 3.46646,18.70089c0.07921,3.50293 0.17196,8.19111 -3.43454,10.05595c-4.77191,1.32231 -9.85467,0.61405 -14.75086,0.73223c-10.16052,0.65547 -19.74983,-8.52323 -19.29647,-18.741c-0.48571,-9.92229 8.47046,-18.65418 18.21745,-18.81599c6.18845,-0.19509 12.26265,3.02538 15.79795,8.06792zM104.91845,189.31848c2.03444,3.3398 6.31496,2.59305 9.61265,2.70774c1.62507,-0.36388 0.40871,-3.69489 0.69506,-5.32253c0.27049,-3.15448 -2.37965,-6.20561 -5.62989,-6.16457c-4.40122,-0.1076 -7.07489,5.20773 -4.67782,8.77936z" fill="url(#color-2)" fill-rule="evenodd" stroke="none" stroke-width="0.12707"/><path d="M152.54922,175.84051c0.88626,5.22372 0.31195,10.6075 0.56068,15.89003c-0.33237,3.82362 1.11562,8.65891 -2.17294,11.57092c-3.31565,3.26954 -9.93308,1.54302 -10.58396,-3.28244c-0.5887,-7.21496 -0.37677,-14.5024 -0.15297,-21.73527c-0.2031,-3.38716 2.80588,-6.22062 6.10515,-6.23066c2.56572,-0.09072 5.21621,1.39252 6.24404,3.78741z" fill="url(#color-3)" fill-rule="evenodd" stroke="url(#color-4)" stroke-width="0.12707"/><path d="M152.70665,163.5099c-1.2769,4.7033 -8.18672,5.99221 -11.0986,2.08605c-3.60499,-3.75607 -0.28226,-10.45932 4.69268,-10.56838c4.30431,-0.24049 7.83957,4.40657 6.40592,8.48232z" fill="url(#color-5)" fill-rule="evenodd" stroke="none" stroke-width="0.12707"/><path d="M184.40726,167.38721c0.40944,-0.00571 0.81888,-0.01123 1.22831,-0.01713c3.14217,0.28495 6.64193,-0.54004 9.5413,0.9461c3.58606,2.02743 4.30204,7.23188 1.46148,10.18962c-2.85517,2.82644 -7.37593,1.64593 -10.9724,2.00033c-2.89426,-0.02929 -6.71782,0.11335 -7.90374,3.32655c-1.03105,4.822 -0.42909,9.89091 -0.84883,14.81991c0.46901,4.83435 -5.80396,8.06608 -9.65938,5.45239c-2.71402,-1.60559 -3.40408,-4.85465 -3.21485,-7.77854c0.15784,-6.20085 -0.94409,-12.91169 2.07787,-18.6249c3.37608,-6.68195 10.8355,-10.82547 18.29023,-10.31436z" fill="url(#color-6)" fill-rule="evenodd" stroke="none" stroke-width="0.12707"/><path d="M218.57266,155.79026c4.24308,2.14979 3.83946,7.54136 3.78593,11.53749c2.11521,0.01984 4.23477,-0.04769 6.34575,0.12105c9.23025,0.30022 17.7598,8.3634 17.90602,17.72096c0.91014,9.46778 -6.70408,18.57966 -16.09587,19.65424c-9.41122,1.68814 -18.99047,-5.34175 -20.90686,-14.54677c-0.68134,-9.26961 -0.34919,-18.5932 -0.30433,-27.88227c-0.48963,-3.63204 2.31035,-7.34529 6.07679,-7.35994c1.10641,-0.03617 2.21909,0.22869 3.19256,0.75525zM222.35859,180.47748c0.12343,2.61271 -0.26338,5.29019 0.29629,7.8637c1.18599,2.53043 4.56815,4.57403 7.27852,3.15766c3.18075,-0.93907 4.0298,-4.76505 3.13018,-7.59487c-1.21814,-2.96145 -4.67208,-3.67641 -7.55105,-3.42649c-1.05132,0 -2.10262,0 -3.15394,0z" fill="url(#color-7)" fill-rule="evenodd" stroke="none" stroke-width="0.12707"/><path d="M339.6034,171.60232c1.02813,4.31065 0.47097,8.87702 0.54692,13.2838c0.53774,8.74383 -5.6321,17.35109 -14.13926,19.51295c-7.60112,2.18572 -16.06567,-1.34546 -20.3102,-7.9169c-4.09566,-5.53136 -2.69554,-12.73553 -2.84998,-19.12429c0.43512,-2.35596 -0.84614,-5.40291 0.99505,-7.21691c2.36212,-3.22962 7.5691,-3.70158 10.13452,-0.4613c2.37995,2.96465 1.19135,7.16703 1.54229,10.6612c0.27538,3.59757 -0.76534,8.40416 2.86447,10.67157c2.7231,2.09247 6.36974,0.4303 8.03006,-2.16922c0.9498,-4.69567 0.49354,-9.64868 0.78937,-14.44411c-0.71605,-3.73729 2.93765,-6.83249 6.45053,-6.9748c2.56592,-0.04247 4.80525,2.03537 5.94622,4.17804z" fill="url(#color-8)" fill-rule="evenodd" stroke="none" stroke-width="0.12707"/><path d="M369.37467,167.36713c1.46992,-0.00915 2.93998,0.00225 4.40983,0.01731c3.98722,0.22119 8.20827,-0.28731 12.03867,0.4364c3.98228,2.5152 4.22067,9.30471 -0.09951,11.55162c-5.60497,1.23441 -11.47647,0.36848 -17.16738,1.05007c-2.76278,-0.11201 -4.11524,2.42009 -5.13304,4.56419c-1.44897,3.29066 -6.12659,4.27928 -8.99918,2.36751c-2.43335,-1.35572 -3.31184,-4.1783 -2.93488,-6.81437c1.98254,-7.7394 9.85961,-13.62988 17.88549,-13.17275z" fill="url(#color-9)" fill-rule="evenodd" stroke="none" stroke-width="0.12707"/><path d="M389.28158,191.19957c-1.23956,6.34107 -6.84117,11.10929 -12.76876,13.08661c-5.59032,1.36758 -11.45798,0.72031 -17.16143,0.7701c-2.58173,0.26342 -5.12588,-0.75796 -6.61681,-2.92077c-1.5917,-2.79275 -1.29724,-6.94485 1.49715,-8.91599c3.72152,-1.88994 8.15892,-0.87527 12.17465,-1.19044c3.14178,-0.31967 7.33532,0.77353 9.44476,-2.25462c1.32312,-2.62303 3.11182,-6.02988 6.57598,-5.77765c4.05678,-0.44255 7.51719,3.16571 6.85446,7.20276z" fill="url(#color-10)" fill-rule="evenodd" stroke="none" stroke-width="0.12707"/><path d="M411.01611,156.4757c3.69128,2.73862 2.30641,7.85647 2.59623,11.75138c2.1261,-0.79777 4.45689,-0.78301 6.6972,-0.78794c7.90945,0.04321 14.50077,6.18315 17.2282,13.27747c0.51972,4.71945 0.06882,9.63955 0.21896,14.43522c-0.4089,2.36518 0.93929,5.42359 -0.92639,7.23956c-2.3682,3.22283 -7.46176,3.46527 -10.10834,0.46448c-2.07936,-2.6734 -1.14496,-6.43816 -1.52699,-9.5794c-0.41624,-3.28655 0.52243,-6.91517 -0.96378,-9.96511c-1.98494,-3.7686 -8.15513,-3.65558 -9.91337,0.24656c-1.06857,4.55929 -0.48093,9.35529 -0.84907,14.01599c0.25894,2.74645 -0.88386,5.68286 -3.57847,6.77094c-3.4736,1.90894 -8.00883,-0.28941 -9.0222,-4.02579c-0.65956,-12.50062 -0.40868,-25.05107 -0.22303,-37.56787c-0.60627,-3.70458 2.26305,-7.50583 6.04377,-7.71321c1.55865,-0.11257 3.147,0.41271 4.32729,1.43772z" fill="url(#color-11)" fill-rule="evenodd" stroke="none" stroke-width="0.12707"/><path d="M281.31874,167.36862c2.74205,0.07084 6.05344,-0.31294 8.17932,1.82243c3.1555,2.43264 2.64844,7.77051 -0.40918,10.0656c-3.67687,2.04976 -8.15671,0.82111 -12.16254,1.31976c-2.60802,-0.31948 -4.99574,1.27279 -6.10613,3.5816c-0.92802,4.36786 -0.36016,8.95933 -0.5792,13.40971c0.46503,3.21727 -1.62563,6.35626 -4.76477,7.16703c-3.00415,1.14431 -5.88029,-0.86332 -7.65132,-3.15691c-0.32428,-6.58656 -0.04351,-13.2906 -0.13797,-19.92175c1.42177,-4.38036 4.20472,-8.5561 8.12361,-11.15356c4.45667,-3.35591 10.23737,-3.02307 15.50833,-3.13389z" fill="url(#color-12)" fill-rule="evenodd" stroke="none" stroke-width="0.03362"/></g></g></svg>